{
	"asset":{
		"version":"2.0",
		"generator":"Created using the official Cinema 4D glTF Exporter 1.000x284978"
	},
	"textures":[{
		"sampler":0,
		"source":0
	}],
	"scenes":[{
		"nodes":[0,
		2,
		4,
		6]
	}],
	"nodes":[{
		"name":"Subdivision Surface.2",
		"children":[1]
	},
	{
		"name":"Bottom",
		"translation":[0.0,
		0.13079999387264253,
		0.0],
		"rotation":[0.0,
		0.0,
		0.0,
		-1.0],
		"scale":[1.0,
		1.0,
		1.0],
		"mesh":0
	},
	{
		"name":"Subdivision Surface.1",
		"children":[3]
	},
	{
		"name":"Can-Body-label",
		"translation":[0.0,
		0.1340000033378601,
		0.0],
		"rotation":[0.0,
		0.0,
		0.0,
		-1.0],
		"scale":[1.0,
		1.0,
		1.0],
		"mesh":1
	},
	{
		"name":"Top Subdivisions",
		"children":[5]
	},
	{
		"name":"Top",
		"translation":[0.0,
		1.600000023841858,
		0.0],
		"rotation":[-9.62964972193618e-35,
		0.0,
		0.0,
		-1.0],
		"scale":[1.0,
		1.0,
		1.0],
		"mesh":2
	},
	{
		"name":"Subdivision Surface",
		"children":[7]
	},
	{
		"name":"Clip",
		"translation":[0.0,
		1.6480000019073487,
		0.0],
		"rotation":[-9.62964972193618e-35,
		0.0,
		0.0,
		-1.0],
		"scale":[1.0,
		1.0,
		1.0],
		"mesh":3
	}],
	"samplers":[{
		"magFilter":9729,
		"minFilter":9729,
		"wrapS":10497,
		"wrapT":10497
	}],
	"meshes":[{
		"name":"Bottom",
		"primitives":[{
			"attributes":{
				"POSITION":1,
				"TEXCOORD_0":2
			},
			"indices":0,
			"material":0
		}]
	},
	{
		"name":"Can-Body-label",
		"primitives":[{
			"attributes":{
				"POSITION":4,
				"TEXCOORD_0":5
			},
			"indices":3,
			"material":1
		}]
	},
	{
		"name":"Top",
		"primitives":[{
			"attributes":{
				"POSITION":7,
				"TEXCOORD_0":8
			},
			"indices":6,
			"material":0
		}]
	},
	{
		"name":"Clip",
		"primitives":[{
			"attributes":{
				"POSITION":10,
				"TEXCOORD_0":11
			},
			"indices":9,
			"material":0
		}]
	}],
	"accessors":[{
		"bufferView":0,
		"type":"SCALAR",
		"componentType":5123,
		"count":4224,
		"byteOffset":0,
		"min":[0],
		"max":[803]
	},
	{
		"bufferView":1,
		"type":"VEC3",
		"componentType":5126,
		"count":804,
		"byteOffset":0,
		"min":[-0.5635051727294922,
		-1.5373424291610718,
		-0.5635051727294922],
		"max":[0.5635051727294922,
		-1.4981616735458375,
		0.5635051727294922]
	},
	{
		"bufferView":1,
		"type":"VEC2",
		"componentType":5126,
		"count":804,
		"byteOffset":12,
		"min":[0.0,
		0.75],
		"max":[1.0,
		1.0]
	},
	{
		"bufferView":2,
		"type":"SCALAR",
		"componentType":5123,
		"count":98304,
		"byteOffset":0,
		"min":[0],
		"max":[16704]
	},
	{
		"bufferView":3,
		"type":"VEC3",
		"componentType":5126,
		"count":16705,
		"byteOffset":0,
		"min":[-0.5626469850540161,
		-1.5134999752044678,
		-0.5626469850540161],
		"max":[0.5626469850540161,
		1.5134999752044678,
		0.5626469850540161]
	},
	{
		"bufferView":3,
		"type":"VEC2",
		"componentType":5126,
		"count":16705,
		"byteOffset":12,
		"min":[0.0,
		0.0],
		"max":[1.0,
		1.0]
	},
	{
		"bufferView":4,
		"type":"SCALAR",
		"componentType":5123,
		"count":114048,
		"byteOffset":0,
		"min":[0],
		"max":[19586]
	},
	{
		"bufferView":5,
		"type":"VEC3",
		"componentType":5126,
		"count":19587,
		"byteOffset":0,
		"min":[-0.5768527984619141,
		0.0033834215719252826,
		-0.5829977989196777],
		"max":[0.5768527984619141,
		0.2022266834974289,
		0.5706990957260132]
	},
	{
		"bufferView":5,
		"type":"VEC2",
		"componentType":5126,
		"count":19587,
		"byteOffset":12,
		"min":[0.0,
		0.0],
		"max":[0.9990081787109375,
		0.9990997314453125]
	},
	{
		"bufferView":6,
		"type":"SCALAR",
		"componentType":5123,
		"count":6456,
		"byteOffset":0,
		"min":[0],
		"max":[1136]
	},
	{
		"bufferView":7,
		"type":"VEC3",
		"componentType":5126,
		"count":1137,
		"byteOffset":0,
		"min":[-0.15795713663101197,
		-7.269355337949021e-16,
		-0.1512850970029831],
		"max":[0.15795713663101197,
		0.02124672196805477,
		0.364457368850708]
	},
	{
		"bufferView":7,
		"type":"VEC2",
		"componentType":5126,
		"count":1137,
		"byteOffset":12,
		"min":[0.00931190513074398,
		0.010090138763189316],
		"max":[0.672895073890686,
		0.9889031648635864]
	}],
	"bufferViews":[{
		"buffer":0,
		"byteOffset":0,
		"byteLength":8448,
		"target":34963
	},
	{
		"buffer":0,
		"byteOffset":8448,
		"byteLength":16080,
		"target":34962,
		"byteStride":20
	},
	{
		"buffer":1,
		"byteOffset":0,
		"byteLength":196608,
		"target":34963
	},
	{
		"buffer":1,
		"byteOffset":196608,
		"byteLength":334100,
		"target":34962,
		"byteStride":20
	},
	{
		"buffer":2,
		"byteOffset":0,
		"byteLength":228096,
		"target":34963
	},
	{
		"buffer":2,
		"byteOffset":228096,
		"byteLength":391740,
		"target":34962,
		"byteStride":20
	},
	{
		"buffer":3,
		"byteOffset":0,
		"byteLength":12912,
		"target":34963
	},
	{
		"buffer":3,
		"byteOffset":12912,
		"byteLength":22740,
		"target":34962,
		"byteStride":20
	}],
	"buffers":[{
		"uri":"data:application/octet-stream;base64,",
		"byteLength":24528
	},
	{
		"uri":"data:application/octet-stream;base64,",
		"byteLength":530708
	},
	{
		"uri":"data:application/octet-stream;base64,",
		"byteLength":619836
	},
	{
		"uri":"data:application/octet-stream;base64,",
		"byteLength":35652
	}],
	"images":[{
		"uri":"data:image/jpeg;base64,"
	}],
	"materials":[{
		"pbrMetallicRoughness":{
			"baseColorFactor":[1.0,
			0.7200000000000006,
			0.29999999999999996,
			1.0],
			"metallicFactor":0.8,
			"roughnessFactor":0.1
		},
		"emissiveFactor":[0.0,
		0.0,
		0.0],
		"alphaMode":"OPAQUE",
		"doubleSided":false,
		"name":"Aluminum"
	},
	{
		"pbrMetallicRoughness":{
			"baseColorTexture":{
				"index":0
			},
			"baseColorFactor":[1.0,
			0.831724137931035,
			0.5793103448275863,
			1.0],
			"metallicFactor":0.8,
			"roughnessFactor":0.1
		},
		"emissiveFactor":[0.0,
		0.0,
		0.0],
		"alphaMode":"OPAQUE",
		"doubleSided":false,
		"name":"label"
	}]
}