<svg width="428" height="926" viewBox="0 0 428 926" fill="none" xmlns="http://www.w3.org/2000/svg">
<g clip-path="url(#clip0_31_24)">
<path d="M292.776 819.244C365.782 825.921 494.972 912.615 550.441 955.128C566.555 923.532 595.196 855.759 580.84 837.435C562.895 814.531 468.414 782.632 416.889 767.215C375.67 754.882 286.063 773.163 246.412 783.846C217.243 798.719 142.223 830.153 75.4962 836.902C8.76963 843.652 -52.2517 813.899 -74.4215 798.179L-95.9733 881.618C-85.0318 889.05 -46.2035 899.111 21.5777 879.892C106.304 855.868 201.518 810.897 292.776 819.244Z" fill="#DC2626"/>
<path d="M219.99 116.311C150.57 92.7438 45.2399 -21.7612 1.25217 -76.0678C-21.8054 -49.1172 -65.5025 10.0773 -55.8303 31.2504C-43.7401 57.7167 40.6601 110.829 87.1499 137.869C124.342 159.5 215.739 162.683 256.788 161.571C288.627 153.932 368.918 140.916 435.373 149.96C501.827 159.004 554.198 202.203 572.076 222.673L612.545 146.589C603.645 136.803 568.247 117.941 497.851 120.774C409.855 124.315 306.764 145.77 219.99 116.311Z" fill="#DC2626"/>
</g>
<defs>
<clipPath id="clip0_31_24">
<rect width="428" height="926" fill="white"/>
</clipPath>
</defs>
</svg>
