<?xml version="1.0" standalone="no"?>
<!DOCTYPE svg PUBLIC "-//W3C//DTD SVG 20010904//EN"
 "http://www.w3.org/TR/2001/REC-SVG-20010904/DTD/svg10.dtd">
<svg version="1.0" xmlns="http://www.w3.org/2000/svg"
 width="700.000000pt" height="700.000000pt" viewBox="0 0 700.000000 700.000000"
 preserveAspectRatio="xMidYMid meet">
<metadata>
Created by potrace 1.14, written by Peter Selinger 2001-2017
</metadata>
<g transform="translate(0.000000,700.000000) scale(0.100000,-0.100000)"
fill="#000000" stroke="none">
<path d="M980 6985 c-494 -78 -891 -478 -965 -972 -22 -147 -22 -4879 0 -5026
64 -428 374 -793 783 -926 184 -60 12 -56 2707 -56 2383 0 2483 1 2565 19 412
90 743 385 869 774 60 184 56 12 56 2707 0 2383 -1 2483 -19 2565 -90 413
-379 738 -774 870 -189 63 -49 60 -2712 59 -1973 -1 -2441 -3 -2510 -14z
m2614 -1447 c12 -5 388 -215 836 -467 581 -326 826 -468 856 -498 77 -75 74
-27 74 -1073 0 -1046 3 -998 -74 -1073 -30 -30 -276 -174 -859 -500 -449 -252
-838 -465 -864 -473 -77 -24 -125 -11 -270 69 -872 484 -1542 867 -1579 904
-77 75 -74 27 -74 1073 0 1046 -3 998 74 1073 30 30 252 160 746 437 942 529
959 538 989 543 36 7 120 -2 145 -15z"/>
<path d="M2737 4914 c-417 -235 -755 -430 -750 -434 14 -13 1521 -850 1530
-850 16 0 1496 845 1495 854 0 8 -1498 856 -1511 856 -4 0 -348 -192 -764
-426z"/>
<path d="M1862 3438 l3 -861 760 -428 c418 -235 761 -426 763 -424 2 2 7 385
12 852 6 627 5 851 -4 860 -6 6 -339 195 -741 418 -401 224 -745 415 -763 426
l-32 18 2 -861z"/>
<path d="M4535 3953 c-324 -184 -662 -376 -750 -427 l-160 -91 -7 -835 c-5
-459 -7 -845 -5 -857 2 -20 78 20 762 405 l760 428 3 857 c1 471 -1 857 -5
857 -5 -1 -273 -152 -598 -337z"/>
</g>
</svg>
