<svg width="1920" height="1080" viewBox="0 0 1920 1080" fill="none" xmlns="http://www.w3.org/2000/svg">
<g clip-path="url(#clip0_31_6)">
<path d="M1044.73 71.7828C838.876 -7.01796 502.853 -320.122 360.573 -466.823C302.66 -407.521 195.349 -275.178 229.41 -220.231C271.987 -151.547 529.618 4.37375 670.861 84.8128C783.856 149.164 1046.5 184.476 1163.7 194.087C1252.57 184.89 1478.54 177.049 1671.54 219.264C1864.53 261.479 2027.47 383.402 2084.82 439.087L2177.81 264.264C2149.38 237.537 2042.35 180.531 1841.65 166.321C1590.76 148.559 1302.04 170.284 1044.73 71.7828Z" fill="#DC2626"/>
<path d="M607.046 1062.16C762.409 1118.89 994.082 1382.59 1090.5 1507.35C1143.89 1447.75 1245.51 1316.48 1224.78 1268.23C1198.88 1207.91 1011.25 1083.76 907.781 1020.38C825.009 969.67 619.025 957.78 526.379 958.174C454.172 973.761 272.401 998.981 122.978 975.156C-26.4461 951.332 -142.342 851.196 -181.612 804.106L-276.812 973.629C-257.243 996.159 -178.373 1040.53 -19.4467 1037.77C179.212 1034.32 412.843 991.237 607.046 1062.16Z" fill="#DC2626"/>
</g>
<defs>
<clipPath id="clip0_31_6">
<rect width="1920" height="1080" fill="white"/>
</clipPath>
</defs>
</svg>
