{
	"asset":{
		"version":"2.0",
		"generator":"Created using the official Cinema 4D glTF Exporter 1.000x284978"
	},
	"scenes":[{
		"nodes":[0]
	}],
	"nodes":[{
		"name":"Cylinder",
		"mesh":0
	}],
	"meshes":[{
		"name":"Cylinder",
		"primitives":[{
			"attributes":{
				"POSITION":1,
				"TEXCOORD_0":2
			},
			"indices":0
		}]
	}],
	"accessors":[{
		"bufferView":0,
		"type":"SCALAR",
		"componentType":5123,
		"count":6336,
		"byteOffset":0,
		"min":[0],
		"max":[1147]
	},
	{
		"bufferView":1,
		"type":"VEC3",
		"componentType":5126,
		"count":1148,
		"byteOffset":0,
		"min":[-0.21885459125041963,
		0.00011329306289553642,
		-0.21768054366111756],
		"max":[0.21650651097297669,
		0.8351540565490723,
		0.21768054366111756]
	},
	{
		"bufferView":1,
		"type":"VEC2",
		"componentType":5126,
		"count":1148,
		"byteOffset":12,
		"min":[0.012921122834086419,
		0.012921122834086419],
		"max":[0.9870789051055908,
		0.9789780378341675]
	}],
	"bufferViews":[{
		"buffer":0,
		"byteOffset":0,
		"byteLength":12672,
		"target":34963
	},
	{
		"buffer":0,
		"byteOffset":12672,
		"byteLength":22960,
		"target":34962,
		"byteStride":20
	}],
	"buffers":[{
		"uri":"data:application/octet-stream;base64,",
		"byteLength":35632
	}]
}
